# xmcd CD database file
#
# Track frame offsets:
#	150
#	14000
#	31025
#	44075
#	57275
#	71550
#	87075
#	97800
#	111900
#	122400
#	134975
#	149925
#	169400
#	180537
#	196725
#	207650
#	219625
#	234075
#	245625
#	257775
#	270425
#	286550
#	309487
#
# Disc length: 4326 seconds
#
# Revision: 0
# Processed by: cddbd v1.5.1PL0 Copyright (c) Steve Scherf et al.
# Submitted via: CDex 1.51
#
DISCID=5b10e417
DTITLE=Various Artist - Classic Country Australia Style Vol 1
DYEAR=1900
DGENRE=Country
TTITLE0=There's An Australian Way To Sing A Country Song - Tex Williams
TTITLE1=When I Dream - Cash Backman
TTITLE2=I Fall To Pieces - Reg Lindsay
TTITLE3=Eighteen Yellow Roses - The Hawking Brothers
TTITLE4=Keep Me From Blowing Away - Deniese Morrison
TTITLE5=Queen Of The Silver Dollar - Lee Conway
TTITLE6=Oh Lonesome Me - Tex Williams
TTITLE7=She's Driving Me Out Of Your Mind - Donna Fisk
TTITLE8=On The Road Again - Reg Lindsay
TTITLE9=Catfish John - The Hawking Brothers
TTITLE10=The Wedding Song - Ian Betteridge
TTITLE11=Old Shep - Tex Williams
TTITLE12=Don't It Make My Brown Eyes Blue - Reg Lindsay
TTITLE13=She's Gone - Johnny Chester
TTITLE14=Stolen Love - Bernie O'Brien
TTITLE15=Sixteen Tons - Lee Conway
TTITLE16=The Wild Colonial Boy - The Hawking Brothers
TTITLE17=Reuben James - Reg Lindsay
TTITLE18=Let's Build A Love Together - Johnny Chester
TTITLE19=Behind Closed Doors - Reg Lindsay
TTITLE20=You Just Gave It Away - Cash Backman
TTITLE21=The Bell - Lee Conway
TTITLE22=Lucille - Reg Lindsay
EXTD=
EXTT0=
EXTT1=
EXTT2=
EXTT3=
EXTT4=
EXTT5=
EXTT6=
EXTT7=
EXTT8=
EXTT9=
EXTT10=
EXTT11=
EXTT12=
EXTT13=
EXTT14=
EXTT15=
EXTT16=
EXTT17=
EXTT18=
EXTT19=
EXTT20=
EXTT21=
EXTT22=
PLAYORDER=
